<?xml version="1.0" standalone="no"?>
<!DOCTYPE svg PUBLIC "-//W3C//DTD SVG 20010904//EN"
 "http://www.w3.org/TR/2001/REC-SVG-20010904/DTD/svg10.dtd">
<svg version="1.0" xmlns="http://www.w3.org/2000/svg"
 width="998.000000pt" height="310.000000pt" viewBox="0 0 998.000000 310.000000"
 preserveAspectRatio="xMidYMid meet">

<g transform="translate(0.000000,310.000000) scale(0.100000,-0.100000)"
fill="#000000" stroke="none">
<path d="M1074 1996 c-82 -36 -53 -166 37 -166 51 0 90 34 91 78 1 42 -17 77
-49 91 -30 14 -41 13 -79 -3z"/>
<path d="M4380 1910 l0 -80 90 0 90 0 0 80 0 80 -90 0 -90 0 0 -80z"/>
<path d="M5810 1860 l0 -129 -46 24 c-79 42 -189 31 -276 -26 -93 -61 -144
-194 -120 -315 33 -160 129 -243 282 -244 61 0 83 5 118 25 l42 24 0 -25 c0
-24 1 -24 90 -24 l90 0 0 410 0 410 -90 0 -90 0 0 -130z m-40 -275 c66 -63 57
-193 -15 -241 -33 -21 -108 -20 -148 3 -87 51 -87 200 1 257 42 27 124 17 162
-19z"/>
<path d="M6450 1580 l0 -411 93 3 92 3 0 405 0 405 -92 3 -93 3 0 -411z"/>
<path d="M887 1968 c-9 -7 -19 -25 -22 -40 -5 -21 -1 -33 19 -52 29 -30 52
-33 84 -10 28 19 30 74 4 97 -22 20 -62 22 -85 5z"/>
<path d="M1255 1960 c-35 -38 -8 -110 42 -110 63 0 91 88 39 122 -21 14 -63 8
-81 -12z"/>
<path d="M766 1944 c-31 -30 -8 -69 36 -62 26 3 37 41 18 64 -16 18 -35 18
-54 -2z"/>
<path d="M1410 1946 c-6 -8 -10 -25 -8 -38 4 -30 46 -38 65 -12 17 23 16 29
-3 48 -19 20 -38 20 -54 2z"/>
<path d="M770 1843 c-41 -15 -54 -78 -22 -106 27 -25 78 -22 96 5 22 32 20 55
-9 83 -24 25 -36 28 -65 18z"/>
<path d="M1396 1829 c-48 -38 -23 -109 38 -109 38 0 66 26 66 61 0 30 -9 43
-37 58 -30 15 -36 14 -67 -10z"/>
<path d="M926 1784 c-31 -30 -8 -69 36 -62 26 3 37 41 18 64 -16 18 -35 18
-54 -2z"/>
<path d="M1076 1779 c-50 -40 -24 -109 42 -109 34 0 62 29 62 66 0 23 -42 64
-65 64 -7 0 -24 -9 -39 -21z"/>
<path d="M1246 1778 c-20 -28 -4 -58 29 -58 33 0 49 30 29 58 -8 12 -21 22
-29 22 -8 0 -21 -10 -29 -22z"/>
<path d="M2331 1769 c-39 -16 -82 -50 -102 -83 l-19 -31 0 58 0 57 -95 0 -95
0 0 -300 0 -301 93 3 92 3 5 150 c4 135 7 154 28 188 32 51 98 88 161 90 l51
2 0 88 0 87 -47 -1 c-27 0 -59 -5 -72 -10z"/>
<path d="M2748 1766 c-139 -50 -210 -139 -216 -273 -6 -104 17 -163 87 -233
72 -71 125 -90 246 -90 79 0 98 4 153 30 83 39 87 52 29 106 l-45 44 -42 -15
c-84 -30 -190 -12 -224 37 -9 12 -16 26 -16 30 0 5 92 8 205 8 l205 0 1 23 c6
163 -47 268 -165 323 -59 27 -157 32 -218 10z m164 -163 c26 -13 54 -50 45
-59 -2 -3 -57 -3 -122 -2 l-118 3 27 32 c43 51 101 60 168 26z"/>
<path d="M3510 1764 c-19 -8 -47 -27 -62 -41 l-28 -27 0 37 0 37 -95 0 -95 0
0 -300 0 -301 93 3 92 3 5 185 c3 124 9 192 18 207 27 48 106 67 161 38 52
-27 61 -64 61 -259 l0 -176 90 0 90 0 0 165 c0 182 9 219 66 264 33 26 100 28
133 5 43 -31 51 -70 51 -259 l0 -175 90 0 90 0 0 193 c0 215 -9 265 -60 335
-38 53 -79 73 -157 80 -80 6 -141 -16 -203 -74 l-46 -43 -26 33 c-59 74 -184
106 -268 70z"/>
<path d="M4973 1769 c-18 -5 -51 -27 -73 -48 l-40 -38 0 44 0 43 -90 0 -90 0
0 -300 0 -300 90 0 90 0 0 173 c0 168 1 173 25 210 30 43 71 67 115 67 80 0
90 -30 90 -266 l0 -184 91 0 90 0 -3 218 c-3 214 -3 218 -31 273 -38 78 -89
112 -171 116 -33 1 -76 -2 -93 -8z"/>
<path d="M6933 1759 c-61 -24 -144 -94 -167 -143 -33 -69 -40 -140 -23 -212
21 -82 59 -140 120 -181 63 -42 104 -53 204 -53 88 0 166 22 212 61 l25 20
-50 50 -50 50 -37 -16 c-56 -23 -147 -20 -187 8 -18 12 -40 32 -48 45 l-14 22
212 0 213 0 -5 79 c-10 180 -123 292 -292 290 -36 0 -83 -8 -113 -20z m160
-145 c15 -3 39 -20 54 -38 l26 -31 -118 -3 c-65 -1 -120 0 -123 3 -3 3 3 18
15 33 21 28 77 54 103 47 8 -2 27 -7 43 -11z"/>
<path d="M7617 1766 c-125 -46 -197 -153 -197 -292 0 -176 119 -304 282 -304
74 0 112 11 146 42 l22 21 0 -32 0 -32 88 3 87 3 3 298 2 297 -90 0 c-83 0
-90 -1 -90 -20 0 -25 -4 -25 -41 2 -38 28 -153 36 -212 14z m194 -169 c44 -29
59 -60 59 -122 0 -86 -54 -148 -129 -147 -48 1 -92 22 -120 58 -26 33 -29 120
-6 165 35 67 131 90 196 46z"/>
<path d="M8479 1771 c-41 -13 -79 -42 -105 -80 l-24 -36 0 58 0 57 -95 0 -95
0 2 -297 3 -298 90 0 90 0 5 145 c5 156 13 181 67 231 41 38 68 50 126 54 l52
3 0 84 0 83 -45 2 c-25 1 -57 -2 -71 -6z"/>
<path d="M8963 1760 c-24 -12 -54 -35 -68 -52 l-25 -30 0 46 0 46 -90 0 -90 0
0 -300 0 -300 90 0 90 0 0 173 c0 168 1 173 25 210 30 43 71 67 115 67 79 0
90 -33 90 -272 l0 -178 91 0 90 0 -3 218 c-3 214 -3 218 -31 273 -38 79 -86
110 -174 116 -56 3 -76 0 -110 -17z"/>
<path d="M4380 1470 l0 -300 90 0 90 0 0 300 0 300 -90 0 -90 0 0 -300z"/>
<path d="M755 1676 c-28 -12 -55 -51 -55 -77 0 -6 7 -26 16 -44 40 -84 164
-54 164 40 0 69 -62 109 -125 81z"/>
<path d="M1410 1683 c-61 -23 -82 -109 -37 -151 56 -52 151 -12 151 64 0 55
-66 105 -114 87z"/>
<path d="M931 1634 c-12 -15 -21 -32 -21 -39 0 -23 41 -65 64 -65 37 0 66 28
66 64 0 64 -70 90 -109 40z"/>
<path d="M1205 1640 c-24 -27 -22 -70 5 -92 28 -23 52 -23 80 0 44 36 17 112
-40 112 -15 0 -35 -9 -45 -20z"/>
<path d="M1086 1618 c-21 -30 -4 -60 32 -56 34 4 44 45 16 65 -24 18 -30 17
-48 -9z"/>
<path d="M1089 1516 c-34 -17 -46 -58 -26 -89 30 -46 92 -38 111 15 18 51 -36
99 -85 74z"/>
<path d="M757 1459 c-59 -45 -12 -135 57 -109 45 17 58 64 29 98 -28 31 -56
35 -86 11z"/>
<path d="M932 1464 c-12 -8 -22 -21 -22 -29 0 -8 10 -21 22 -29 28 -20 58 -4
58 29 0 33 -30 49 -58 29z"/>
<path d="M1250 1460 c-22 -22 -17 -45 11 -61 14 -7 23 -5 39 11 16 16 18 25
11 39 -16 28 -39 33 -61 11z"/>
<path d="M1412 1469 c-54 -20 -51 -99 5 -120 22 -8 32 -6 52 9 62 46 15 137
-57 111z"/>
<path d="M1050 1335 c-53 -56 -12 -149 65 -149 76 0 116 94 64 150 -32 34 -96
34 -129 -1z"/>
<path d="M881 1314 c-12 -15 -21 -32 -21 -39 0 -7 9 -24 21 -39 40 -50 109
-24 109 42 0 59 -72 83 -109 36z"/>
<path d="M1260 1322 c-44 -36 -17 -112 41 -112 35 0 72 44 63 74 -17 55 -63
71 -104 38z"/>
<path d="M762 1298 c-17 -17 -15 -32 7 -52 16 -14 23 -15 41 -6 31 17 24 64
-10 68 -14 2 -31 -3 -38 -10z"/>
<path d="M1407 1303 c-15 -14 -6 -53 14 -64 18 -9 25 -7 41 9 16 16 18 23 9
41 -11 20 -50 29 -64 14z"/>
</g>
</svg>
